<?xml version="1.0" encoding="UTF-8"?>
<!-- Created with Inkscape (http://www.inkscape.org/) -->
<svg width="257.59" height="422.65" version="1.1" viewBox="0 0 257.59 422.65" xmlns="http://www.w3.org/2000/svg">
 <g transform="translate(-143.72 -123.61)">
  <path d="m-110.99 262.96 389.82-374.54 374.54 389.82-389.82 374.54z" fill="none" stroke="#fff" stroke-miterlimit="22.926" stroke-width=".288"/>
  <g transform="matrix(.87034 0 0 .71688 35.118 146.42)">
   <path d="m275.62-27.311c-28.11-2.2733-58.805 0.55909-85.593 17.652-22.624 14.434-39.084 43.436-39.348 74.2-0.21551 25.057-1.222 50.245 1.5004 76.564-14.838 3.3595-27.163 10.366-22.79 22.114 1.1257 3.0225 25.664-4.5721 27.965-8.3467 0.79085-1.2978 3.2067-0.17195 4.0732-0.86547-6.0615 42.006-9.74 88.968-9.3085 133.51-7.1153 8.9924-5.4196 23.74 0.35829 31.269 0.34918 18.305 0.4023 34.099 2.1937 52.655-4.8985 8.0742-6.6194 23.252-7.4573 37.467-0.0913 25.512-1.5148 50.774 1.9496 76.57 3.5018 21.924 16.626 38.183 38.106 50.951 23.473 13.953 52.568 17.015 79.503 17.445 26.936 0.43168 56.11-1.6992 79.996-14.894 21.859-12.074 35.471-27.906 39.638-49.707 4.2479-25.673 3.5936-50.968 4.2781-76.47-0.40395-14.236-1.662-29.461-6.3124-37.688 2.3554-18.49 2.8892-34.274 3.7953-52.559 6.0042-7.3403 8.148-22.027 1.3098-31.243 1.787-44.507-0.46044-91.564-5.2406-133.74 0.84495 0.72092 3.2939-0.32708 4.0448 0.99534 2.185 3.8464 26.481 12.222 27.697 9.2382 4.7296-11.604-7.3764-19.001-22.105-22.835 3.523-26.218 3.2827-51.427 3.8299-76.476 0.67273-30.758-14.896-60.272-37.07-75.423-26.254-17.942-56.848-21.754-85.014-20.381" fill="#fad025" fill-rule="evenodd"/>
   <path d="m275.62-27.311c-28.11-2.2733-58.805 0.55909-85.593 17.652-22.624 14.434-39.084 43.436-39.348 74.2-0.21551 25.057-1.222 50.245 1.5004 76.564-14.838 3.3595-27.163 10.366-22.79 22.114 1.1257 3.0225 25.664-4.5721 27.965-8.3467 0.79085-1.2978 3.2067-0.17195 4.0732-0.86547-6.0615 42.006-9.74 88.968-9.3085 133.51-7.1153 8.9924-5.4196 23.74 0.35829 31.269 0.34918 18.305 0.4023 34.099 2.1937 52.655-4.8985 8.0742-6.6194 23.252-7.4573 37.467-0.0913 25.512-1.5148 50.774 1.9496 76.57 3.5018 21.924 16.626 38.183 38.106 50.951 23.473 13.953 52.568 17.015 79.503 17.445 26.936 0.43168 56.11-1.6992 79.996-14.894 21.859-12.074 35.471-27.906 39.638-49.707 4.2479-25.673 3.5936-50.968 4.2781-76.47-0.40395-14.236-1.662-29.461-6.3124-37.688 2.3554-18.49 2.8892-34.274 3.7953-52.559 6.0042-7.3403 8.148-22.027 1.3098-31.243 1.787-44.507-0.46044-91.564-5.2406-133.74 0.84495 0.72092 3.2939-0.32708 4.0448 0.99534 2.185 3.8464 26.481 12.222 27.697 9.2382 4.7296-11.604-7.3764-19.001-22.105-22.835 3.523-26.218 3.2827-51.427 3.8299-76.476 0.67273-30.758-14.896-60.272-37.07-75.423-26.254-17.942-56.848-21.754-85.014-20.381z" fill="none" stroke="#231f20" stroke-miterlimit="22.926" stroke-width="7.6514"/>
   <path d="m275.62-27.311c-28.11-2.2733-58.805 0.55909-85.593 17.652-22.624 14.434-39.084 43.436-39.348 74.2-0.21551 25.057-1.222 50.245 1.5004 76.564-14.838 3.3595-27.163 10.366-22.79 22.114 1.1257 3.0225 25.664-4.5721 27.965-8.3467 0.79085-1.2978 3.2067-0.17195 4.0732-0.86547-6.0615 42.006-9.74 88.968-9.3085 133.51-7.1153 8.9924-5.4196 23.74 0.35829 31.269 0.34918 18.305 0.4023 34.099 2.1937 52.655-4.8985 8.0742-6.6194 23.252-7.4573 37.467-0.0913 25.512-1.5148 50.774 1.9496 76.57 3.5018 21.924 16.626 38.183 38.106 50.951 23.473 13.953 52.568 17.015 79.503 17.445 26.936 0.43168 56.11-1.6992 79.996-14.894 21.859-12.074 35.471-27.906 39.638-49.707 4.2479-25.673 3.5936-50.968 4.2781-76.47-0.40395-14.236-1.662-29.461-6.3124-37.688 2.3554-18.49 2.8892-34.274 3.7953-52.559 6.0042-7.3403 8.148-22.027 1.3098-31.243 1.787-44.507-0.46044-91.564-5.2406-133.74 0.84495 0.72092 3.2939-0.32708 4.0448 0.99534 2.185 3.8464 26.481 12.222 27.697 9.2382 4.7296-11.604-7.3764-19.001-22.105-22.835 3.523-26.218 3.2827-51.427 3.8299-76.476 0.67273-30.758-14.896-60.272-37.07-75.423-26.254-17.942-56.848-21.754-85.014-20.381" fill="#2ad4ff" fill-rule="evenodd"/>
   <g fill="#231f20" fill-rule="evenodd">
    <path d="m165.53 431.98c-12.479-106.47-14.459-200.66-0.25608-304.34 15.966 98.453 14.004 200.28 0.25608 304.34"/>
    <path d="m202.52 279.14 1.9558-55.414c0.21412-6.078 5.0219-10.865 10.953-10.884 18.7-0.0593 37.436-0.83523 56.094-0.17914 18.669-0.0589 37.372 1.3159 56.061 1.9734 5.928 0.20887 10.588 5.1472 10.617 11.229l0.26732 55.449c0.029 6.0819-5.0208 10.98-10.953 10.884-38.126-0.60896-76.252-1.2189-114.38-1.8298-5.9307-0.0939-10.83-5.1501-10.616-11.228"/>
    <path d="m381.28 131.1c-15.715 106.02-20.56 200.1-9.5187 304.18 18.954-97.893 20.093-199.74 9.5187-304.18"/>
    <path d="m267.59 500.59c-27.908-0.48193-55.082-7.0671-80.952-24.53 7e-3 -29.613 0.0133-59.225 0.0192-88.839 23.389 7.0652 52.466 9.6526 82.486 11.344 30.056-0.73006 59.198-2.386 82.791-8.6998-0.89548 29.6-1.7901 59.198-2.685 88.796-26.388 16.627-53.75 22.34-81.659 21.929"/>
   </g>
   <path d="m186.64 466.3 0.0165-79.083c23.389 7.0652 52.466 9.6526 82.486 11.344 30.056-0.73006 59.198-2.386 82.791-8.6998l-2.2372 73.932c-27.286 6.0885-59.768 9.3603-94.586 8.8034-24.344-0.38983-47.487-2.615-68.47-6.2958" fill="#2e2a2b" fill-rule="evenodd"/>
   <path d="m186.64 466.3 0.0165-79.083c23.389 7.0652 52.466 9.6526 82.486 11.344 30.056-0.73006 59.198-2.386 82.791-8.6998l-2.2372 73.932c-27.286 6.0885-59.768 9.3603-94.586 8.8034-24.344-0.38983-47.487-2.615-68.47-6.2958z" fill="none" stroke="#393536" stroke-miterlimit="22.926" stroke-width=".29152"/>
   <path d="m272.46 180.73c-30.966-0.27505-61.132 2.3648-90.838 11.872-3.5689-28.304-7.1377-56.607-10.707-84.911 18.845-30.773 54.689-44.293 103.34-44.816 48.61 2.0794 84.025 16.74 101.92 48.101-4.4276 28.175-8.8561 56.35-13.285 84.526-29.402-10.453-59.474-14.057-90.433-14.772" fill="#231f20" fill-rule="evenodd"/>
   <path d="m272.46 180.73c-30.966-0.27505-61.132 2.3648-90.838 11.872l-9.2008-72.983c25.118-4.7732 54.012-7.2661 84.729-6.7738 44.633 0.71401 85.239 7.5939 115.85 18.318l-10.112 64.339c-29.402-10.453-59.474-14.057-90.433-14.772" fill="#2e2a2b" fill-rule="evenodd"/>
   <path d="m272.46 180.73c-30.966-0.27505-61.132 2.3648-90.838 11.872l-9.2008-72.983c25.118-4.7732 54.012-7.2661 84.729-6.7738 44.633 0.71401 85.239 7.5939 115.85 18.318l-10.112 64.339c-29.402-10.453-59.474-14.057-90.433-14.772z" fill="none" stroke="#393536" stroke-miterlimit="22.926" stroke-width=".29152"/>
   <path d="m166.81 25.383c-1.1226-3.1056 5.5936-11.699 14.999-19.19 9.4067-7.4917 17.945-11.047 19.067-7.9411 1.1226 3.1056-5.5945 11.698-14.999 19.19-9.4067 7.4898-17.945 11.047-19.067 7.9411zm182.75-24.753c-1.2175 3.0691 5.2348 11.873 14.408 19.661 9.1732 7.788 17.6 11.615 18.816 8.5472 1.2165-3.0681-5.2358-11.872-14.409-19.66-9.1741-7.7889-17.599-11.616-18.815-8.5481" fill="#393536" fill-rule="evenodd"/>
   <path d="m166.81 25.383c-1.1226-3.1056 5.5936-11.699 14.999-19.19 9.4067-7.4917 17.945-11.047 19.067-7.9411 1.1226 3.1056-5.5945 11.698-14.999 19.19-9.4067 7.4898-17.945 11.047-19.067 7.9411zm182.75-24.753c-1.2175 3.0691 5.2348 11.873 14.408 19.661 9.1732 7.788 17.6 11.615 18.816 8.5472 1.2165-3.0681-5.2358-11.872-14.409-19.66-9.1741-7.7889-17.599-11.616-18.815-8.5481z" fill="#d40000" stroke="#393536" stroke-miterlimit="22.926" stroke-width=".29152"/>
   <path d="m164.75 501.31c0.069-4.5274 7.4135-3.2598 16.4 2.8296 8.9862 6.0878 16.219 14.698 16.15 19.225-0.069 4.5274-7.4131 3.2594-16.4-2.8293-8.9868-6.0892-16.219-14.698-16.15-19.226zm172.4 24.291c-0.0699 4.5283 7.3097 3.4963 16.478-2.3023 9.1681-5.7984 16.658-14.172 16.727-18.7 0.0694-4.527-7.3094-3.4959-16.477 2.3024-9.1674 5.799-16.659 14.173-16.727 18.7" fill="#ed1c24" fill-rule="evenodd"/>
   <path d="m164.75 501.31c0.069-4.5274 7.4135-3.2598 16.4 2.8296 8.9862 6.0878 16.219 14.698 16.15 19.225-0.069 4.5274-7.4131 3.2594-16.4-2.8293-8.9868-6.0892-16.219-14.698-16.15-19.226zm172.4 24.291c-0.0699 4.5283 7.3097 3.4963 16.478-2.3023 9.1681-5.7984 16.658-14.172 16.727-18.7 0.0694-4.527-7.3094-3.4959-16.477 2.3024-9.1674 5.799-16.659 14.173-16.727 18.7z" fill="none" stroke="#ed1c24" stroke-miterlimit="22.926" stroke-width=".29152"/>
  </g>
 </g>
</svg>
